<svg xmlns="http://www.w3.org/2000/svg" width="74.449" height="51" viewBox="0 0 74.449 51"><g transform="translate(-73.529 -131)"><path d="M147.764,154.9l-8.578-10.62c-1.225-1.43-1.634-1.225-2.451-1.021l-10.416,1.634c-1.021.2-1.634.613-1.021,1.43l7.557,10.62-22.67,5.514L92.211,132.43A2.17,2.17,0,0,0,89.76,131l-14.909,1.225c-.817,0-1.838.408-1.021,2.655l15.522,33.291a3.146,3.146,0,0,0,3.881,1.838l15.522-4.085,8.374,14.705c1.225,1.838,2.042,1.43,4.085,1.021l24.1-8.782c1.021-.408,1.634-.613,1.021-1.634l-9.191-12.459,10.008-2.655c1.021-.2,1.021-.817.408-1.225Zm-41.052,8.374-13.48,3.268-.817-.2q-7.484-16.05-15.114-32.065l12.254-1.225,17.156,30.023Zm35.742,6.74c.2.2.408.408-.2.613L120.4,177.975c-.408.2-.817.2-1.225-.408l-7.353-12.459,22.058-5.719c.613-.2.613-.2,1.021.2Zm1.225-15.726-8.374,2.042-6.74-8.987c-.2-.2-.408-.408.2-.613l8.17-1.43c.408,0,.817-.2,1.225.408l6.331,7.965C144.7,154.079,144.292,154.283,143.679,154.283Z" fill="#fb503b"/></g></svg>