<svg xmlns="http://www.w3.org/2000/svg" width="50.311" height="50.319" viewBox="0 0 50.311 50.319"><g transform="translate(30.166 57.319)"><path d="M34.933,59a25.159,25.159,0,1,1,25.2-24.487A25.158,25.158,0,0,1,34.933,59Zm11.5-12.173c.071,0,.131-.01.2-.01.151-.474.293-.949.444-1.423.908-2.917,1.857-5.814,2.705-8.741a10.91,10.91,0,0,0,.111-6.076A16.249,16.249,0,0,0,48,26.639a9.436,9.436,0,0,1-1.474-3.391A3.681,3.681,0,0,1,49.2,19.069a12.025,12.025,0,0,1,2.079-.111,21.553,21.553,0,0,0-19.339-7.106C24.8,12.912,19.5,16.737,15.745,22.915c.979,0,1.847.01,2.705,0,1.413-.02,2.826-.04,4.239-.091.939-.03,1.877-.121,2.816-.161a.815.815,0,0,1,.908.7.8.8,0,0,1-.727.919c-.242.05-.5.061-.747.091-.545.061-1.09.111-1.7.172C25.778,32.07,28.292,39.529,30.8,47c.061-.01.131-.01.192-.02.061-.151.131-.293.182-.444L35.3,34.27a2.085,2.085,0,0,0,.03-1.464Q33.858,28.9,32.46,24.964a.6.6,0,0,0-.646-.474c-.636-.04-1.272-.131-1.9-.222a.658.658,0,0,1-.575-.666.724.724,0,0,1,.454-.818,1.589,1.589,0,0,1,.686-.081,61.413,61.413,0,0,0,10.376,0c.868-.071,1.262.161,1.292.737.03.555-.313.828-1.151.908-.646.061-1.292.121-2.019.192C41.454,32.009,43.947,39.418,46.43,46.826ZM27.494,54.72a2,2,0,0,0-.061-.273q-2.286-6.268-4.562-12.526Q19.889,33.745,16.9,25.569a.711.711,0,0,0-.495-.363c-.414-.061-.848.02-1.262-.03-.384-.05-.525.1-.656.434a21.543,21.543,0,0,0-1.554,8.872,21.971,21.971,0,0,0,9.488,17.623A20.452,20.452,0,0,0,27.494,54.72Zm15.685-.252c-2.221-6.1-4.411-12.1-6.6-18.108a1.1,1.1,0,0,0-.182.01c-2.19,6.339-4.381,12.678-6.591,19.077A22.048,22.048,0,0,0,43.18,54.467Zm3.331-1.746A22.05,22.05,0,0,0,56.836,36.914,21.65,21.65,0,0,0,54.555,23.7a22.743,22.743,0,0,1-.353,6.026c-.414,1.676-.969,3.311-1.524,4.946C51,39.6,49.3,44.5,47.611,49.42,47.247,50.48,46.9,51.55,46.511,52.721Z" transform="translate(-40 -66)"/></g></svg>