<svg xmlns="http://www.w3.org/2000/svg" width="49" height="49" viewBox="0 0 49 49"><g transform="translate(-2 -2)"><path d="M2,26.5V51H51V2H2Z" fill="#007acc"/><path d="M36.89,14.969a6.1,6.1,0,0,1,3.064,1.766,8.069,8.069,0,0,1,1.174,1.575c.016.063-2.116,1.493-3.407,2.294-.047.031-.233-.175-.443-.483a2.777,2.777,0,0,0-2.3-1.384c-1.486-.1-2.45.677-2.434,1.976a1.8,1.8,0,0,0,.21.917c.327.677.933,1.081,2.839,1.906,3.5,1.508,5.008,2.5,5.95,3.92a7.11,7.11,0,0,1,.567,5.973,6.568,6.568,0,0,1-5.425,3.882,15.022,15.022,0,0,1-3.733-.038,9,9,0,0,1-4.986-2.6,8.657,8.657,0,0,1-1.276-1.89,3.661,3.661,0,0,1,.451-.287c.217-.124,1.05-.6,1.82-1.05l1.4-.817.294.432a6.578,6.578,0,0,0,1.867,1.785,4.55,4.55,0,0,0,4.767-.242,2.13,2.13,0,0,0,.273-2.714c-.382-.544-1.159-1-3.367-1.96a12.127,12.127,0,0,1-4.613-2.838,6.461,6.461,0,0,1-1.346-2.45,9.811,9.811,0,0,1-.086-3.127,5.973,5.973,0,0,1,5.024-4.651A12.411,12.411,0,0,1,36.89,14.969Zm-11.5,2.046.016,2.007H19.026V37.145H14.514V19.022H8.136V17.055a19.283,19.283,0,0,1,.054-2.023c.023-.032,3.9-.047,8.61-.039l8.563.023Z" transform="translate(4.597 9.578)" fill="#fff"/></g></svg>