<svg xmlns="http://www.w3.org/2000/svg" width="65.252" height="49" viewBox="0 0 65.252 49"><g transform="translate(-2.1 -5.56)"><path d="M22.152,52.884a3.437,3.437,0,0,1-.368-2.21H6.2L29.349,9.916,39.106,27.3l3.068-2.29L32.54,7.688A4.11,4.11,0,0,0,29.312,5.56a3.591,3.591,0,0,0-3.15,2.168L2.7,49a4.056,4.056,0,0,0-.2,3.885,3.58,3.58,0,0,0,3.415,1.656H25.559A3.573,3.573,0,0,1,22.143,52.9Z" transform="translate(0)" fill="#00c58e"/><path d="M45.476,44.563,26.6,11.044A3.969,3.969,0,0,0,23.43,8.916a3.493,3.493,0,0,0-3.068,2.128l-2.5,3.988v7.741l5.562-9.55L42.079,46.231h-7.1a3.23,3.23,0,0,1-.286,1.963l-.061.122a4.056,4.056,0,0,1-3.415,1.717H42.326a4.035,4.035,0,0,0,3.415-1.717,3.631,3.631,0,0,0-.286-3.753Z" transform="translate(21.218 4.517)" fill="#108775"/><path d="M45.245,44.771l.061-.122.164-.326a3,3,0,0,0,.143-1.642,4.949,4.949,0,0,0-.633-1.7L30.234,15.414l-2.229-3.885h-.04l-2.25,3.866L10.991,40.964a5.114,5.114,0,0,0-.572,1.677,3.373,3.373,0,0,0,.347,2.21,3.666,3.666,0,0,0,3.476,1.642H41.707a4.2,4.2,0,0,0,3.537-1.738ZM27.963,19.287l13.5,23.374h-27Z" transform="translate(11.121 8.033)" fill="#2f495e"/></g></svg>