<svg xmlns="http://www.w3.org/2000/svg" width="50" height="50" viewBox="0 0 50 50"><g transform="translate(-2 -2)"><rect width="50" height="50" transform="translate(2 2)" fill="#f5de19"/><path d="M25.711,27.809a4.094,4.094,0,0,0,3.714,2.286c1.557,0,2.553-.779,2.553-1.857,0-1.286-1.023-1.746-2.737-2.5l-.94-.4c-2.714-1.156-4.514-2.6-4.514-5.663,0-2.819,2.143-4.966,5.5-4.966a5.556,5.556,0,0,1,5.346,3.01L31.7,19.6a2.556,2.556,0,0,0-2.413-1.611,1.636,1.636,0,0,0-1.8,1.611c0,1.127.7,1.584,2.311,2.286l.94.4c3.194,1.37,5,2.766,5,5.9,0,3.384-2.659,5.239-6.229,5.239a7.221,7.221,0,0,1-6.85-3.844Zm-13.279.326c.59,1.047,1.127,1.933,2.419,1.933,1.234,0,2.014-.483,2.014-2.361V14.925h3.759V27.756c0,3.891-2.286,5.663-5.613,5.663A5.836,5.836,0,0,1,9.372,29.99Z" transform="translate(13.159 15.441)"/></g></svg>