<svg xmlns="http://www.w3.org/2000/svg" width="44.087" height="50" viewBox="0 0 44.087 50"><g transform="translate(-8.76 -1.352)"><path d="M12.772,46.354l-4.012-45H52.847L48.831,46.347,30.777,51.352l-18-5Z" fill="#1572b6"/><path d="M64,53.067,78.59,49.022l3.432-38.45H64Z" transform="translate(-33.197 -5.541)" fill="#33a9dc"/><path d="M64,34.606h7.3l.5-5.652H64V23.435h13.84l-.132,1.481L76.352,40.125H64V34.606Z" transform="translate(-33.197 -13.271)" fill="#fff"/><path d="M45.856,78.231l-.024.007-6.147-1.66-.393-4.4h-5.54l.773,8.666,11.306,3.138.025-.007Z" transform="translate(-15.019 -42.562)" fill="#ebebeb"/><path d="M70.856,64.675l-.665,7.391-6.156,1.662V79.47L75.35,76.335l.083-.933.96-10.727Z" transform="translate(-33.217 -38.054)" fill="#fff"/><path d="M43.228,23.435v5.519H29.9l-.111-1.24-.251-2.8L29.4,23.435H43.228Zm-.019,11.172v5.519H37.14l-.111-1.24-.252-2.8-.132-1.481Z" transform="translate(-12.405 -13.271)" fill="#ebebeb"/></g></svg>