<svg xmlns="http://www.w3.org/2000/svg" width="44.089" height="50" viewBox="0 0 44.089 50"><g transform="translate(-3.655 -2)"><path d="M7.668,47,3.655,2H47.744L43.726,46.995,25.673,52Z" transform="translate(0)" fill="#e44f26"/><path d="M16,46.556l14.589-4.045,3.432-38.45H16Z" transform="translate(9.7 1.619)" fill="#f1662a"/><path d="M22.089,18.322h-7.3l-.5-5.652h7.807V7.151H8.25l.132,1.482L9.738,23.842H22.089Z" transform="translate(3.61 4.047)" fill="#ebebeb"/><path d="M21.326,24.1,21.3,24.1l-6.146-1.659-.393-4.4H9.221l.773,8.664L21.3,29.848l.025-.007Z" transform="translate(4.373 12.606)" fill="#ebebeb"/><path d="M15.989,13.407v5.52h6.8l-.639,7.159-6.157,1.661v5.743l11.316-3.138.082-.932,1.3-14.53.136-1.482H15.989Z" transform="translate(9.691 8.963)" fill="#fff"/><path d="M15.989,7.151v5.52H29.321l.111-1.239.252-2.8.132-1.482Z" transform="translate(9.691 4.047)" fill="#fff"/></g></svg>