<svg xmlns="http://www.w3.org/2000/svg" width="100" height="97.554" viewBox="0 0 100 97.554"><g transform="translate(0 -5.365)"><path d="M93.293,30.267a49.782,49.782,0,0,0-18.2-18.2A48.9,48.9,0,0,0,50,5.365a48.91,48.91,0,0,0-25.1,6.706,49.777,49.777,0,0,0-18.2,18.2A48.909,48.909,0,0,0,0,55.363,48.592,48.592,0,0,0,9.538,84.757a48.969,48.969,0,0,0,24.641,18.066,2.914,2.914,0,0,0,2.6-.455,2.546,2.546,0,0,0,.846-1.952q0-.2-.033-3.515t-.033-5.793l-1.5.259a19.1,19.1,0,0,1-3.613.228,27.53,27.53,0,0,1-4.524-.456,10.11,10.11,0,0,1-4.362-1.952,8.26,8.26,0,0,1-2.864-4l-.651-1.5A16.268,16.268,0,0,0,18,80.365a7.856,7.856,0,0,0-2.832-2.474l-.456-.326a4.779,4.779,0,0,1-.846-.782,3.571,3.571,0,0,1-.586-.911q-.2-.457.325-.75a4.222,4.222,0,0,1,1.888-.291l1.3.195a9.5,9.5,0,0,1,3.223,1.562,10.508,10.508,0,0,1,3.157,3.384,11.476,11.476,0,0,0,3.613,4.07,7.665,7.665,0,0,0,4.264,1.4,18.514,18.514,0,0,0,3.711-.324,12.949,12.949,0,0,0,2.929-.977,10.548,10.548,0,0,1,3.19-6.706,44.579,44.579,0,0,1-6.673-1.172,26.57,26.57,0,0,1-6.119-2.54,17.527,17.527,0,0,1-5.241-4.361,20.961,20.961,0,0,1-3.417-6.836A32.507,32.507,0,0,1,18.1,52.758a18.989,18.989,0,0,1,5.144-13.412q-2.409-5.923.455-13.28,1.888-.587,5.6.879a39.145,39.145,0,0,1,5.436,2.507q1.726,1.04,2.767,1.758a47.018,47.018,0,0,1,25,0l2.474-1.562a35.037,35.037,0,0,1,5.988-2.865q3.45-1.3,5.275-.716,2.929,7.357.52,13.28A18.992,18.992,0,0,1,81.9,52.759a32.871,32.871,0,0,1-1.335,9.8,20.147,20.147,0,0,1-3.449,6.836,18.2,18.2,0,0,1-5.274,4.329,26.621,26.621,0,0,1-6.12,2.539,44.532,44.532,0,0,1-6.673,1.173q3.384,2.929,3.384,9.244v13.736a2.593,2.593,0,0,0,.815,1.952,2.828,2.828,0,0,0,2.571.455A48.963,48.963,0,0,0,90.463,84.755,48.6,48.6,0,0,0,100,55.361,48.948,48.948,0,0,0,93.293,30.267Z"/></g></svg>