<svg xmlns="http://www.w3.org/2000/svg" width="122.84" height="100" viewBox="0 0 122.84 100"><path d="M124.84,15.831a52.146,52.146,0,0,1-14.5,3.931A25.366,25.366,0,0,0,121.462,5.819a50.426,50.426,0,0,1-16.031,6.142A25.182,25.182,0,0,0,62.437,34.932a71.493,71.493,0,0,1-51.9-26.349A25.551,25.551,0,0,0,7.159,21.3,25.121,25.121,0,0,0,18.338,42.241,24.875,24.875,0,0,1,6.914,39.109v.307A25.182,25.182,0,0,0,27.182,63.984a24.138,24.138,0,0,1-6.756,1.044A30.1,30.1,0,0,1,15.7,64.6,25.244,25.244,0,0,0,39.22,82.041,50.487,50.487,0,0,1,8.142,92.851,48.709,48.709,0,0,1,2,92.483a71.063,71.063,0,0,0,38.633,11.363,71.186,71.186,0,0,0,71.923-71.738V28.852A51.777,51.777,0,0,0,124.84,15.831Z" transform="translate(-2 -3.849)" fill="#00aaec"/></svg>